<?xml version="1.0" encoding="utf-8"?>
<!-- Generator: Adobe Illustrator 22.1.0, SVG Export Plug-In . SVG Version: 6.00 Build 0)  -->
<svg version="1.1" id="レイヤー_1" xmlns="http://www.w3.org/2000/svg" xmlns:xlink="http://www.w3.org/1999/xlink" x="0px"
	 y="0px" viewBox="0 0 451 92" style="enable-background:new 0 0 451 92;" xml:space="preserve">
<style type="text/css">
	.st0{fill:#FFFFFF;}
</style>
<g>
	<path class="st0" d="M164.6,71.5l20.9-51.4h5.4l20.9,51.4H205L199,56h-21.5l-6.1,15.5H164.6z M188.2,28.1
		c-2.3,6.4-4.5,12.2-6.6,17.4l-1.9,4.8h17l-1.9-4.8c-2.1-5.3-4.3-11.1-6.4-17.4H188.2z"/>
	<path class="st0" d="M241.5,28.6c-0.4,2.4-1.4,6.5-2.9,12.4l-8,30.5h-6.4l-15.7-51.4h6.3l8.8,30.2c1.4,4.8,2.6,9.2,3.6,13.1h0.2
		c0.5-2.4,1.1-4.7,1.7-7c0.6-2.3,1.1-4.3,1.6-6l7.8-30.2h6.3l7.8,30.2c1.9,7.3,3,11.6,3.2,13h0.2c0.9-3.6,2.1-7.9,3.6-13.1l8.8-30.2
		h6.3l-15.8,51.4h-6.3L244.5,41c-1.4-5.7-2.4-9.8-2.9-12.4H241.5z"/>
	<path class="st0" d="M289.1,65.9h26.3v5.6h-32.6V20.1H314v5.6h-24.9v16.6h22.2V48h-22.2V65.9z"/>
	<path class="st0" d="M351.1,56.8c0-1.3-0.3-2.4-1-3.2c-0.6-0.8-1.5-1.5-2.6-2s-2.3-0.9-3.7-1.2c-1.4-0.3-2.8-0.6-4.3-0.9
		c-2-0.4-3.9-1-5.7-1.6c-1.8-0.6-3.4-1.4-4.8-2.5s-2.5-2.4-3.3-4.1c-0.8-1.6-1.2-3.7-1.2-6.1c0-2.7,0.5-5.1,1.4-7.1s2.2-3.7,3.9-5
		c1.6-1.3,3.5-2.3,5.7-3s4.7-1,7.4-1c2.7,0,5.5,0.3,8.3,0.8s5.1,1.2,7.1,2.1v8.1c-2.7-1-5.2-1.8-7.7-2.3c-2.4-0.5-4.7-0.7-6.9-0.7
		c-3.1,0-5.5,0.6-7.2,1.7s-2.5,2.8-2.5,5.1c0,1.3,0.3,2.4,0.8,3.2s1.3,1.5,2.2,2.1c0.9,0.6,2,1,3.3,1.3c1.2,0.3,2.5,0.6,3.9,0.9
		c2.2,0.5,4.3,1,6.2,1.6c2,0.6,3.7,1.4,5.3,2.5c1.5,1.1,2.8,2.5,3.6,4.2c0.9,1.7,1.3,3.9,1.3,6.6c0,2.8-0.5,5.2-1.5,7.2
		s-2.5,3.7-4.4,5s-4.2,2.3-6.9,2.9c-2.7,0.6-5.6,1-8.8,1c-2.8,0-5.5-0.3-8.2-0.8c-2.7-0.6-4.9-1.3-6.7-2.3v-8c2.5,1.1,5,1.9,7.4,2.4
		s4.9,0.7,7.5,0.7c1.5,0,2.9-0.1,4.4-0.4c1.4-0.2,2.7-0.7,3.9-1.2c1.1-0.6,2.1-1.4,2.7-2.4C350.8,59.5,351.1,58.2,351.1,56.8z"/>
	<path class="st0" d="M380.7,63.6H406v7.9h-34.7V20.1h33.3V28h-23.9v13.3h20.5v7.9h-20.5L380.7,63.6L380.7,63.6z"/>
	<path class="st0" d="M439.4,27.1c-2.6,0-4.9,0.4-7.1,1.3s-4,2.1-5.6,3.7c-1.5,1.6-2.8,3.6-3.6,6c-0.9,2.4-1.3,5.1-1.3,8.1
		s0.4,5.7,1.2,8c0.8,2.3,1.9,4.2,3.4,5.7s3.3,2.7,5.4,3.5s4.6,1.2,7.3,1.2c1.9,0,3.9-0.2,6-0.5c2-0.3,3.9-0.8,5.7-1.3v8.1
		c-1.8,0.5-3.7,0.9-5.8,1.2c-2.1,0.3-4.2,0.4-6.5,0.4c-4.4,0-8.2-0.6-11.5-1.9c-3.3-1.2-6.1-3-8.3-5.3c-2.2-2.3-3.9-5-5-8.1
		c-1.1-3.2-1.7-6.7-1.7-10.5c0-3.9,0.6-7.6,1.8-10.9c1.2-3.4,2.9-6.3,5.1-8.7c2.2-2.5,5-4.4,8.4-5.8s7.2-2.1,11.4-2.2
		c2.2,0,4.2,0.1,6.2,0.4c1.9,0.3,3.7,0.7,5.3,1.2v8c-2-0.6-4-1.1-5.7-1.3C442.8,27.2,441.1,27.1,439.4,27.1z"/>
</g>
<g>
	<polygon class="st0" points="0,92.3 33.7,-0.3 58.9,-0.3 25.3,92.3 	"/>
	<polygon class="st0" points="33.4,92.3 58.5,92.3 46.3,57.6 	"/>
	<polygon class="st0" points="96.7,12.3 71.6,12.3 83.9,47 	"/>
	<polygon class="st0" points="92.2,92.2 62.7,11.2 50.2,46.2 66.9,92.2 	"/>
	<polygon class="st0" points="126.2,92.3 100.9,23.6 88.2,57.6 100.9,92.3 	"/>
	<polygon class="st0" points="100.9,92.3 134.6,-0.3 159.8,-0.3 126.1,92.3 	"/>
</g>
</svg>
